<?xml version="1.0" standalone="no"?>
<!DOCTYPE svg PUBLIC "-//W3C//DTD SVG 20010904//EN"
 "http://www.w3.org/TR/2001/REC-SVG-20010904/DTD/svg10.dtd">
<svg version="1.0" xmlns="http://www.w3.org/2000/svg"
 width="329.000000pt" height="329.000000pt" viewBox="0 0 329.000000 329.000000"
 preserveAspectRatio="xMidYMid meet">
<metadata>
Created by potrace 1.11, written by Peter Selinger 2001-2013
</metadata>
<g transform="translate(0.000000,329.000000) scale(0.100000,-0.100000)"
fill="#000000" stroke="none">
<path d="M1091 3109 c-122 -24 -217 -129 -247 -276 -25 -117 -96 -226 -195
-299 -55 -40 -177 -94 -213 -94 -36 0 -142 -58 -175 -96 -105 -118 -114 -276
-25 -412 76 -115 106 -249 84 -369 -16 -82 -36 -131 -83 -201 -44 -64 -57
-107 -57 -189 0 -77 28 -155 75 -211 42 -48 136 -97 213 -112 175 -32 338
-199 377 -383 36 -170 138 -264 299 -275 85 -5 128 6 206 53 94 57 157 77 255
82 106 6 191 -12 269 -57 160 -92 235 -108 346 -70 116 39 196 129 221 250 15
74 52 154 99 216 66 88 190 166 285 179 116 16 207 80 257 183 28 56 33 77 32
132 -1 72 -24 149 -59 195 -58 78 -85 170 -85 295 1 88 10 132 45 213 5 12 -9
6 -45 -18 -29 -19 -57 -35 -64 -35 -6 0 12 13 40 30 62 35 98 76 133 150 34
72 36 191 4 261 -45 100 -130 167 -248 194 -145 34 -251 108 -329 230 -40 62
-53 95 -66 165 -30 161 -160 270 -324 270 -81 0 -123 -13 -202 -65 -107 -71
-241 -96 -369 -70 -82 17 -118 33 -197 90 -70 49 -156 64 -257 44z m146 -209
c75 -45 84 -148 19 -207 -30 -28 -43 -33 -83 -33 -84 0 -132 48 -133 132 0 75
52 126 130 127 19 1 49 -8 67 -19z m969 -13 c31 -28 37 -42 41 -83 9 -90 -39
-144 -129 -144 -55 0 -105 30 -124 75 -19 46 -18 68 6 115 25 49 61 69 123 70
40 0 53 -5 83 -33z m-413 -306 c30 -11 97 -40 147 -65 51 -25 100 -46 110 -46
19 0 104 -35 170 -69 61 -33 162 -136 194 -199 15 -29 35 -86 45 -125 19 -77
40 -123 77 -172 36 -49 67 -152 72 -245 5 -105 -18 -191 -78 -295 -23 -38 -46
-90 -52 -115 -18 -74 -80 -189 -133 -248 -68 -75 -151 -127 -259 -161 -50 -16
-136 -52 -191 -80 -80 -41 -117 -53 -181 -62 -142 -20 -212 -2 -404 101 -30
16 -66 30 -80 30 -13 0 -65 20 -115 44 -153 75 -245 185 -284 338 -19 79 -25
93 -77 178 -42 69 -64 154 -64 245 0 95 21 171 79 290 27 55 56 131 65 169 41
175 172 303 378 367 53 17 114 42 135 56 55 38 137 74 191 83 67 12 190 3 255
-19z m-1200 -365 c36 -36 51 -81 40 -124 -16 -67 -63 -102 -139 -102 -41 0
-51 5 -85 39 -34 34 -39 44 -39 86 0 87 49 134 137 135 46 0 56 -4 86 -34z
m2282 1 c58 -58 59 -131 4 -185 -97 -95 -255 -1 -218 130 15 56 61 88 128 88
47 0 57 -4 86 -33z m-13 -935 c15 -9 34 -30 43 -48 44 -93 -18 -194 -120 -194
-56 0 -90 22 -119 77 -20 39 -20 75 -2 111 39 76 122 98 198 54z m-2292 3 c55
-28 79 -110 49 -169 -23 -47 -64 -71 -118 -70 -129 2 -178 152 -75 233 32 25
101 28 144 6z m1897 -167 c-3 -7 -5 -2 -5 12 0 14 2 19 5 13 2 -7 2 -19 0 -25z
m-1229 -498 c80 -49 78 -173 -4 -227 -79 -51 -204 17 -204 112 0 38 36 102 68
119 39 22 101 20 140 -4z m941 2 c74 -40 92 -143 35 -203 -63 -65 -170 -54
-210 22 -60 117 61 242 175 181z"/>
</g>
</svg>
